<?xml version="1.0" encoding="us-ascii" standalone="no"?><svg xmlns="http://www.w3.org/2000/svg" xmlns:xlink="http://www.w3.org/1999/xlink" contentStyleType="text/css" height="391px" preserveAspectRatio="none" style="width:652px;height:391px;background:#FFFFFF;" version="1.1" viewBox="0 0 652 391" width="652px" zoomAndPan="magnify"><defs/><g><!--cluster app--><g id="cluster_app"><rect fill="none" height="298" rx="2.5" ry="2.5" style="stroke:#181818;stroke-width:1.0;" width="378" x="36.5" y="7"/><text fill="#000000" font-family="sans-serif" font-size="14" font-weight="bold" lengthAdjust="spacing" textLength="74" x="188.5" y="21.9951">Aplikacja</text></g><g id="elem_sn"><ellipse cx="132.3735" cy="270.2747" fill="#F1F1F1" rx="79.3735" ry="18.2747" style="stroke:#181818;stroke-width:0.5;"/><text fill="#000000" font-family="sans-serif" font-size="14" lengthAdjust="spacing" textLength="117" x="71.9676" y="273.7248">System Notatek</text></g><g id="elem_sz"><ellipse cx="322.3844" cy="270.4769" fill="#F1F1F1" rx="75.3844" ry="17.4769" style="stroke:#181818;stroke-width:0.5;"/><text fill="#000000" font-family="sans-serif" font-size="14" lengthAdjust="spacing" textLength="107" x="265.8844" y="274.2244">System Zlece&#324;</text></g><g id="elem_su"><ellipse cx="299.6147" cy="169.6229" fill="#F1F1F1" rx="98.6147" ry="22.1229" style="stroke:#181818;stroke-width:0.5;"/><text fill="#000000" font-family="sans-serif" font-size="14" lengthAdjust="spacing" textLength="161" x="219.1147" y="172.4696">System U&#380;ytkownik&#243;w</text></g><!--entity dbn--><g id="elem_dbn"><path d="M91.5,157 C91.5,147 128.5,147 128.5,147 C128.5,147 165.5,147 165.5,157 L165.5,182.2969 C165.5,192.2969 128.5,192.2969 128.5,192.2969 C128.5,192.2969 91.5,192.2969 91.5,182.2969 L91.5,157 " fill="#F1F1F1" style="stroke:#181818;stroke-width:0.5;"/><path d="M91.5,157 C91.5,167 128.5,167 128.5,167 C128.5,167 165.5,167 165.5,157 " fill="none" style="stroke:#181818;stroke-width:0.5;"/><text fill="#000000" font-family="sans-serif" font-size="14" lengthAdjust="spacing" textLength="54" x="101.5" y="183.9951">Notatki</text></g><!--entity dbu--><g id="elem_dbu"><path d="M264.5,52 C264.5,42 319.5,42 319.5,42 C319.5,42 374.5,42 374.5,52 L374.5,77.2969 C374.5,87.2969 319.5,87.2969 319.5,87.2969 C319.5,87.2969 264.5,87.2969 264.5,77.2969 L264.5,52 " fill="#F1F1F1" style="stroke:#181818;stroke-width:0.5;"/><path d="M264.5,52 C264.5,62 319.5,62 319.5,62 C319.5,62 374.5,62 374.5,52 " fill="none" style="stroke:#181818;stroke-width:0.5;"/><text fill="#000000" font-family="sans-serif" font-size="14" lengthAdjust="spacing" textLength="90" x="274.5" y="78.9951">U&#380;ytkownicy</text></g><!--entity dbz--><g id="elem_dbz"><path d="M152,52 C152,42 190.5,42 190.5,42 C190.5,42 229,42 229,52 L229,77.2969 C229,87.2969 190.5,87.2969 190.5,87.2969 C190.5,87.2969 152,87.2969 152,77.2969 L152,52 " fill="#F1F1F1" style="stroke:#181818;stroke-width:0.5;"/><path d="M152,52 C152,62 190.5,62 190.5,62 C190.5,62 229,62 229,52 " fill="none" style="stroke:#181818;stroke-width:0.5;"/><text fill="#000000" font-family="sans-serif" font-size="14" lengthAdjust="spacing" textLength="57" x="162" y="78.9951">Zespo&#322;y</text></g><!--entity user--><g id="elem_user"><rect fill="#F1F1F1" height="36.2969" rx="2.5" ry="2.5" style="stroke:#181818;stroke-width:0.5;" width="103" x="7" y="349"/><text fill="#000000" font-family="sans-serif" font-size="14" lengthAdjust="spacing" textLength="83" x="17" y="371.9951">U&#380;ytkownik</text></g><!--entity admin--><g id="elem_admin"><rect fill="#F1F1F1" height="36.2969" rx="2.5" ry="2.5" style="stroke:#181818;stroke-width:0.5;" width="120" x="430.5" y="46.5"/><text fill="#000000" font-family="sans-serif" font-size="14" lengthAdjust="spacing" textLength="100" x="440.5" y="69.4951">Administrator</text></g><!--entity maps--><g id="elem_maps"><rect fill="#F1F1F1" height="36.2969" rx="2.5" ry="2.5" style="stroke:#181818;stroke-width:0.5;" width="125" x="145" y="349"/><text fill="#000000" font-family="sans-serif" font-size="14" lengthAdjust="spacing" textLength="105" x="155" y="371.9951">Dostawca map</text></g><!--entity zsz--><g id="elem_zsz"><rect fill="#F1F1F1" height="36.2969" rx="2.5" ry="2.5" style="stroke:#181818;stroke-width:0.5;" width="213" x="433" y="151.5"/><text fill="#000000" font-family="sans-serif" font-size="14" lengthAdjust="spacing" textLength="193" x="443" y="174.4951">Zewn&#281;trzny system zlece&#324;</text></g><!--reverse link sn to maps--><g id="link_sn_maps"><path d="M149.549,292.9823 C162.955,309.8733 181.384,333.0935 193.831,348.7771 " fill="none" id="sn-backto-maps" style="stroke:#181818;stroke-width:1.0;"/><polygon fill="#181818" points="146.256,288.8328,148.7186,298.3688,149.3646,292.749,154.9845,293.395,146.256,288.8328" style="stroke:#181818;stroke-width:1.0;"/></g><!--link admin to su--><g id="link_admin_su"><path d="M454.482,84.923 C421.925,102.48 374.043,128.301 340.131,146.589 " fill="none" id="admin-su" style="stroke:#181818;stroke-width:1.0;"/><polygon fill="#181818" points="458.96,82.508,449.1397,83.258,454.5588,84.8807,452.9361,90.2998,458.96,82.508" style="stroke:#181818;stroke-width:1.0;"/><polygon fill="#181818" points="335.65,149.005,345.47,148.2512,340.0502,146.6306,341.6709,141.2109,335.65,149.005" style="stroke:#181818;stroke-width:1.0;"/></g><!--link dbn to sn--><g id="link_dbn_sn"><path d="M129.598,197.675 C130.22,213.067 130.989,232.103 131.579,246.71 " fill="none" id="dbn-sn" style="stroke:#181818;stroke-width:1.0;"/><polygon fill="#181818" points="129.388,192.471,125.7538,201.6248,129.5894,197.4669,133.7473,201.3025,129.388,192.471" style="stroke:#181818;stroke-width:1.0;"/><polygon fill="#181818" points="131.788,251.876,135.4223,242.7222,131.5866,246.8801,127.4288,243.0444,131.788,251.876" style="stroke:#181818;stroke-width:1.0;"/></g><!--link zsz to sz--><g id="link_zsz_sz"><path d="M502.196,187.519 C462.372,205.687 399.637,234.309 359.81,252.478 " fill="none" id="zsz-to-sz" style="stroke:#181818;stroke-width:1.0;"/><polygon fill="#181818" points="355.07,254.641,364.9184,254.5436,359.6187,252.5652,361.5971,247.2656,355.07,254.641" style="stroke:#181818;stroke-width:1.0;"/></g><!--link sn to user--><g id="link_sn_user"><path d="M115.678,292.9823 C103.5877,308.4218 87.3567,329.1492 75.2769,344.5755 " fill="none" id="sn-user" style="stroke:#181818;stroke-width:1.0;"/><polygon fill="#181818" points="118.927,288.8328,110.2283,293.4516,115.8439,292.7691,116.5263,298.3846,118.927,288.8328" style="stroke:#181818;stroke-width:1.0;"/><polygon fill="#181818" points="71.9867,348.7771,80.6849,344.1574,75.0694,344.8405,74.3863,339.225,71.9867,348.7771" style="stroke:#181818;stroke-width:1.0;"/></g><!--link dbz to su--><g id="link_dbz_su"><path d="M216.996,90.538 C234.336,106.923 256.868,128.215 274.003,144.407 " fill="none" id="dbz-su" style="stroke:#181818;stroke-width:1.0;"/><polygon fill="#181818" points="213.35,87.092,217.1441,96.1807,216.9841,90.5261,222.6387,90.3661,213.35,87.092" style="stroke:#181818;stroke-width:1.0;"/><polygon fill="#181818" points="277.794,147.989,273.9999,138.9003,274.1599,144.5549,268.5053,144.7149,277.794,147.989" style="stroke:#181818;stroke-width:1.0;"/></g><!--link dbu to su--><g id="link_dbu_su"><path d="M314.257,92.502 C311.266,107.907 307.534,127.126 304.572,142.382 " fill="none" id="dbu-su" style="stroke:#181818;stroke-width:1.0;"/><polygon fill="#181818" points="315.259,87.344,309.615,95.4152,314.3048,92.2521,317.4679,96.9419,315.259,87.344" style="stroke:#181818;stroke-width:1.0;"/><polygon fill="#181818" points="303.599,147.392,309.243,139.3208,304.5532,142.4839,301.3901,137.7941,303.599,147.392" style="stroke:#181818;stroke-width:1.0;"/></g><!--link sz to sn--><g id="link_sz_sn"><path d="M241.686,270.5 C233.59,270.5 225.494,270.5 217.398,270.5 " fill="none" id="sz-sn" style="stroke:#181818;stroke-width:1.0;"/><polygon fill="#181818" points="246.727,270.5,237.727,266.5,241.727,270.5,237.727,274.5,246.727,270.5" style="stroke:#181818;stroke-width:1.0;"/><polygon fill="#181818" points="212.285,270.5,221.285,274.5,217.285,270.5,221.285,266.5,212.285,270.5" style="stroke:#181818;stroke-width:1.0;"/></g><!--link su to sn--><g id="link_su_sn"><path d="M261.649,192.938 C232.395,210.281 192.347,234.022 164.638,250.448 " fill="none" id="su-sn" style="stroke:#181818;stroke-width:1.0;"/><polygon fill="#181818" points="266.106,190.296,256.3245,191.4462,261.8054,192.8464,260.4051,198.3272,266.106,190.296" style="stroke:#181818;stroke-width:1.0;"/><polygon fill="#181818" points="160.301,253.019,170.0826,251.8703,164.602,250.4692,166.003,244.9886,160.301,253.019" style="stroke:#181818;stroke-width:1.0;"/></g><!--link su to sz--><g id="link_su_sz"><path d="M305.51,196.371 C309.231,212.386 313.953,232.713 317.475,247.869 " fill="none" id="su-sz" style="stroke:#181818;stroke-width:1.0;"/><polygon fill="#181818" points="304.378,191.495,302.5185,201.1667,305.5095,196.3653,310.3109,199.3563,304.378,191.495" style="stroke:#181818;stroke-width:1.0;"/><polygon fill="#181818" points="318.62,252.797,320.4802,243.1254,317.4888,247.9266,312.6876,244.9353,318.62,252.797" style="stroke:#181818;stroke-width:1.0;"/></g><!--SRC=[NP4zJiGm44Rxd6Aq5HIv0Lff9MeQH9DkubZ8EB4jZwqeHZI8It0EMZh8lV1FmYP9OutVo-Vns7BcK3tt74vFy_Vaf1wLa2T00a_SLlRABzqWb21dqMcR3KmxM-LUayEH8GneiX5NsWeD7zNlfxD1JK0JEJv0w3dZyqVM0uMDVJ6zaCXUC9zb3BnM4B-Rn_BZWtRekBnDbDGEDIMpeB13crl-V8t5yDdeq66B5BlCoLBabhfM7UWrWKsBSWneE1azlwyuL9cdOK3jw_FQRfuVtDLfPuberxeOSI2GotA9z2IHRo9Y-270xsfAsDRdHIU_Y_ylG_Ns1m00]--></g></svg>