<?xml version="1.0" encoding="us-ascii" standalone="no"?><svg xmlns="http://www.w3.org/2000/svg" xmlns:xlink="http://www.w3.org/1999/xlink" contentStyleType="text/css" height="729px" preserveAspectRatio="none" style="width:624px;height:729px;background:#FFFFFF;" version="1.1" viewBox="0 0 624 729" width="624px" zoomAndPan="magnify"><defs/><g><!--cluster aplikacja--><g id="cluster_aplikacja"><rect fill="none" height="716" rx="2.5" ry="2.5" style="stroke:#181818;stroke-width:1.0;" width="302" x="80" y="7"/><text fill="#000000" font-family="sans-serif" font-size="14" font-weight="bold" lengthAdjust="spacing" textLength="73" x="194.5" y="21.9951">aplikacja</text></g><g id="elem_&quot;dodaj notatk&#281;&quot;"><ellipse cx="231.0591" cy="60.1118" fill="#F1F1F1" rx="78.5591" ry="18.1118" style="stroke:#181818;stroke-width:0.5;"/><text fill="#000000" font-family="sans-serif" font-size="14" lengthAdjust="spacing" textLength="115" x="171.3328" y="63.6525">"dodaj notatk&#281;"</text></g><g id="elem_&quot;edytuj notatk&#281;&quot;"><ellipse cx="231.0271" cy="132.1054" fill="#F1F1F1" rx="81.0271" ry="18.6054" style="stroke:#181818;stroke-width:0.5;"/><text fill="#000000" font-family="sans-serif" font-size="14" lengthAdjust="spacing" textLength="121" x="169.2415" y="135.3718">"edytuj notatk&#281;"</text></g><g id="elem_&quot;usu&#324; notatk&#281;&quot;"><ellipse cx="230.7754" cy="203.0551" fill="#F1F1F1" rx="75.7754" ry="17.5551" style="stroke:#181818;stroke-width:0.5;"/><text fill="#000000" font-family="sans-serif" font-size="14" lengthAdjust="spacing" textLength="108" x="173.7754" y="206.8026">"usu&#324; notatk&#281;"</text></g><g id="elem_&quot;wyszukaj notatk&#281;&quot;"><ellipse cx="230.7915" cy="276.1583" fill="#F1F1F1" rx="88.7915" ry="20.1583" style="stroke:#181818;stroke-width:0.5;"/><text fill="#000000" font-family="sans-serif" font-size="14" lengthAdjust="spacing" textLength="139" x="161.2915" y="279.005">"wyszukaj notatk&#281;"</text></g><g id="elem_&quot;przypisanie notatki do zlecenia&quot;"><ellipse cx="230.9476" cy="360.8895" fill="#F1F1F1" rx="134.9476" ry="29.3895" style="stroke:#181818;stroke-width:0.5;"/><text fill="#000000" font-family="sans-serif" font-size="14" lengthAdjust="spacing" textLength="239" x="111.4476" y="363.7362">"przypisanie notatki do zlecenia"</text></g><g id="elem_&quot;lokalne ustawienia&quot;"><ellipse cx="230.9431" cy="446.1886" fill="#F1F1F1" rx="91.4431" ry="20.6886" style="stroke:#181818;stroke-width:0.5;"/><text fill="#000000" font-family="sans-serif" font-size="14" lengthAdjust="spacing" textLength="145" x="158.4431" y="449.0353">"lokalne ustawienia"</text></g><g id="elem_&quot;tworzenie u&#380;ytkownika&quot;"><ellipse cx="230.7877" cy="525.8575" fill="#F1F1F1" rx="107.2877" ry="23.8575" style="stroke:#181818;stroke-width:0.5;"/><text fill="#000000" font-family="sans-serif" font-size="14" lengthAdjust="spacing" textLength="180" x="140.7877" y="528.7042">"tworzenie u&#380;ytkownika"</text></g><g id="elem_&quot;tworzenie zespo&#322;u&quot;"><ellipse cx="230.9431" cy="606.1886" fill="#F1F1F1" rx="91.4431" ry="20.6886" style="stroke:#181818;stroke-width:0.5;"/><text fill="#000000" font-family="sans-serif" font-size="14" lengthAdjust="spacing" textLength="145" x="158.4431" y="609.0353">"tworzenie zespo&#322;u"</text></g><g id="elem_&quot;nadawanie uprawnie&#324;&quot;"><ellipse cx="230.8371" cy="684.1674" fill="#F1F1F1" rx="101.3371" ry="22.6674" style="stroke:#181818;stroke-width:0.5;"/><text fill="#000000" font-family="sans-serif" font-size="14" lengthAdjust="spacing" textLength="167" x="147.3371" y="687.0141">"nadawanie uprawnie&#324;"</text></g><!--entity u--><g id="elem_u"><ellipse cx="21" cy="210.5" fill="#F1F1F1" rx="8" ry="8" style="stroke:#181818;stroke-width:0.5;"/><path d="M21,218.5 L21,245.5 M8,226.5 L34,226.5 M21,245.5 L8,260.5 M21,245.5 L34,260.5 " fill="none" style="stroke:#181818;stroke-width:0.5;"/><text fill="#000000" font-family="sans-serif" font-size="14" lengthAdjust="spacing" textLength="30" x="6" y="274.9951">user</text></g><!--entity a--><g id="elem_a"><ellipse cx="521.5" cy="576.5" fill="#F1F1F1" rx="8" ry="8" style="stroke:#181818;stroke-width:0.5;"/><path d="M521.5,584.5 L521.5,611.5 M508.5,592.5 L534.5,592.5 M521.5,611.5 L508.5,626.5 M521.5,611.5 L534.5,626.5 " fill="none" style="stroke:#181818;stroke-width:0.5;"/><text fill="#000000" font-family="sans-serif" font-size="14" lengthAdjust="spacing" textLength="44" x="499.5" y="640.9951">admin</text></g><!--entity x--><g id="elem_x"><ellipse cx="521.5" cy="331.5" fill="#F1F1F1" rx="8" ry="8" style="stroke:#181818;stroke-width:0.5;"/><path d="M521.5,339.5 L521.5,366.5 M508.5,347.5 L534.5,347.5 M521.5,366.5 L508.5,381.5 M521.5,366.5 L534.5,381.5 " fill="none" style="stroke:#181818;stroke-width:0.5;"/><text fill="#000000" font-family="sans-serif" font-size="14" lengthAdjust="spacing" textLength="191" x="426" y="395.9951">zewn&#281;trzny system zlece&#324;</text></g><!--entity m--><g id="elem_m"><ellipse cx="521.5" cy="102.5" fill="#F1F1F1" rx="8" ry="8" style="stroke:#181818;stroke-width:0.5;"/><path d="M521.5,110.5 L521.5,137.5 M508.5,118.5 L534.5,118.5 M521.5,137.5 L508.5,152.5 M521.5,137.5 L534.5,152.5 " fill="none" style="stroke:#181818;stroke-width:0.5;"/><text fill="#000000" font-family="sans-serif" font-size="14" lengthAdjust="spacing" textLength="103" x="470" y="166.9951">dostawca map</text></g><!--link u to "dodaj notatk?"--><g id="link_u_&quot;dodaj notatk&#281;&quot;"><path d="M25.1201,201.943 C29.8679,169.171 41.8362,123.011 72,96 C94.0065,76.294 124.541,66.696 152.905,62.231 " fill="none" id="u-&quot;dodaj notatk&#281;&quot;" style="stroke:#181818;stroke-width:1.0;"/></g><!--link u to "edytuj notatk?"--><g id="link_u_&quot;edytuj notatk&#281;&quot;"><path d="M36.1089,210.011 C44.536,195.229 56.6129,178.39 72,168 C96.0153,151.784 126.283,142.789 153.884,137.829 " fill="none" id="u-&quot;edytuj notatk&#281;&quot;" style="stroke:#181818;stroke-width:1.0;"/></g><!--link u to "usu? notatk?"--><g id="link_u_&quot;usu&#324; notatk&#281;&quot;"><path d="M36.2967,237.457 C63.4646,232.624 123.961,221.863 170.169,213.643 " fill="none" id="u-&quot;usu&#324; notatk&#281;&quot;" style="stroke:#181818;stroke-width:1.0;"/></g><!--link u to "wyszukaj notatk?"--><g id="link_u_&quot;wyszukaj notatk&#281;&quot;"><path d="M36.2967,242.474 C61.4453,246.827 115.152,256.122 159.649,263.824 " fill="none" id="u-&quot;wyszukaj notatk&#281;&quot;" style="stroke:#181818;stroke-width:1.0;"/></g><!--link u to "przypisanie notatki do zlecenia"--><g id="link_u_&quot;przypisanie notatki do zlecenia&quot;"><path d="M36.125,269.592 C44.6239,284.54 56.7617,301.829 72,313 C88.8783,325.373 108.978,334.593 129.09,341.452 " fill="none" id="u-&quot;przypisanie notatki do zlecenia&quot;" style="stroke:#181818;stroke-width:1.0;"/></g><!--link u to "lokalne ustawienia"--><g id="link_u_&quot;lokalne ustawienia&quot;"><path d="M22.8578,278.309 C25.8362,316.533 36.4461,374.291 72,408 C90.8355,425.858 116.539,435.789 141.741,441.183 " fill="none" id="u-&quot;lokalne ustawienia&quot;" style="stroke:#181818;stroke-width:1.0;"/></g><!--link "tworzenie u?ytkownika" to a--><g id="link_&quot;tworzenie u&#380;ytkownika&quot;_a"><path d="M301.706,544.151 C329.249,551.422 361.153,559.967 390,568 C428.645,578.761 473.512,591.987 499.296,599.659 " fill="none" id="&quot;tworzenie u&#380;ytkownika&quot;-a" style="stroke:#181818;stroke-width:1.0;"/></g><!--link "tworzenie zespo?u" to a--><g id="link_&quot;tworzenie zespo&#322;u&quot;_a"><path d="M322.887,606 C384.99,606 462.453,606 499.224,606 " fill="none" id="&quot;tworzenie zespo&#322;u&quot;-a" style="stroke:#181818;stroke-width:1.0;"/></g><!--link "nadawanie uprawnie?" to a--><g id="link_&quot;nadawanie uprawnie&#324;&quot;_a"><path d="M299.798,667.3953 C327.784,660.3959 360.512,652.0231 390,644 C428.708,633.468 473.555,620.167 499.318,612.418 " fill="none" id="&quot;nadawanie uprawnie&#324;&quot;-a" style="stroke:#181818;stroke-width:1.0;"/></g><!--link "przypisanie notatki do zlecenia" to x--><g id="link_&quot;przypisanie notatki do zlecenia&quot;_x"><path d="M366.115,361 C386.274,361 406.699,361 425.803,361 " fill="none" id="&quot;przypisanie notatki do zlecenia&quot;-x" style="stroke:#181818;stroke-width:1.0;"/></g><!--link "dodaj notatk?" to m--><g id="link_&quot;dodaj notatk&#281;&quot;_m"><path d="M288.822,72.296 C318.964,78.983 356.579,87.587 390,96 C416.438,102.655 445.711,110.67 469.822,117.447 " fill="none" id="&quot;dodaj notatk&#281;&quot;-m" style="stroke:#181818;stroke-width:1.0;"/></g><!--link "edytuj notatk?" to m--><g id="link_&quot;edytuj notatk&#281;&quot;_m"><path d="M312.363,132 C362.715,132 426.082,132 469.591,132 " fill="none" id="&quot;edytuj notatk&#281;&quot;-m" style="stroke:#181818;stroke-width:1.0;"/></g><!--link "wyszukaj notatk?" to m--><g id="link_&quot;wyszukaj notatk&#281;&quot;_m"><path d="M306.334,265.219 C333.582,259.46 364.076,250.815 390,238 C424.67,220.862 458.41,193.068 482.896,170.24 " fill="none" id="&quot;wyszukaj notatk&#281;&quot;-m" style="stroke:#181818;stroke-width:1.0;"/></g><!--SRC=[XP11RiCW44NtFiN8gtIHq_G48vYw10m81ZdGNPHBv2vTnlUgSUFAigEKvVptP_ZVq0S3EmYg-sIGAf1WvMmJjR8U0_RWKMZiw9sp8QWosivGWu9TW3P52YrWXBHCKFRApYDSHeK6UxznA3P3p96fXs98q7YTkVF2IHSP1u7Gev-Lllax2EYDqYXE-DN0uoKu7k4msIIUm3f6rlTR-mPRW6Jcj2QsG8fflBxGXnnBqg-F-52oLn6jeWUcGBhVe5RXVgbn6eqbI3MqsZ27bWSN2jLjQVpEhDrWf_pJuScCJxb2qRlnalQCHOd3_BFa0qwBQlKxwjy4rN1U6NR5Jtg_qdUzpq3LLj2pRYls0m00]--></g></svg>