<?xml version="1.0" encoding="us-ascii" standalone="no"?><svg xmlns="http://www.w3.org/2000/svg" xmlns:xlink="http://www.w3.org/1999/xlink" contentStyleType="text/css" height="373px" preserveAspectRatio="none" style="width:1074px;height:373px;background:#FFFFFF;" version="1.1" viewBox="0 0 1074 373" width="1074px" zoomAndPan="magnify"><defs/><g><!--cluster app--><g id="cluster_app"><rect fill="none" height="261" rx="2.5" ry="2.5" style="stroke:#181818;stroke-width:1.0;" width="1061" x="7" y="106"/><text fill="#000000" font-family="sans-serif" font-size="14" font-weight="bold" lengthAdjust="spacing" textLength="74" x="500.5" y="120.9951">Aplikacja</text></g><!--cluster sn--><g id="cluster_sn"><rect fill="none" height="94" rx="2.5" ry="2.5" style="stroke:#181818;stroke-width:1.0;" width="1013" x="31" y="149"/><text fill="#000000" font-family="sans-serif" font-size="14" font-weight="bold" lengthAdjust="spacing" textLength="130" x="472.5" y="163.9951">System Notatek</text></g><g id="elem_sz"><ellipse cx="938.8844" cy="328.4769" fill="#F1F1F1" rx="75.3844" ry="17.4769" style="stroke:#181818;stroke-width:0.5;"/><text fill="#000000" font-family="sans-serif" font-size="14" lengthAdjust="spacing" textLength="107" x="882.3844" y="332.2244">System Zlece&#324;</text></g><g id="elem_su"><ellipse cx="229.1147" cy="328.6229" fill="#F1F1F1" rx="98.6147" ry="22.1229" style="stroke:#181818;stroke-width:0.5;"/><text fill="#000000" font-family="sans-serif" font-size="14" lengthAdjust="spacing" textLength="161" x="148.6147" y="331.4696">System U&#380;ytkownik&#243;w</text></g><!--entity dbn--><g id="elem_dbn"><path d="M614,316 C614,306 651,306 651,306 C651,306 688,306 688,316 L688,341.2969 C688,351.2969 651,351.2969 651,351.2969 C651,351.2969 614,351.2969 614,341.2969 L614,316 " fill="#F1F1F1" style="stroke:#181818;stroke-width:0.5;"/><path d="M614,316 C614,326 651,326 651,326 C651,326 688,326 688,316 " fill="none" style="stroke:#181818;stroke-width:0.5;"/><text fill="#000000" font-family="sans-serif" font-size="14" lengthAdjust="spacing" textLength="54" x="624" y="342.9951">Notatki</text></g><g id="elem_add"><ellipse cx="734.8735" cy="205.2747" fill="#F1F1F1" rx="79.3735" ry="18.2747" style="stroke:#181818;stroke-width:0.5;"/><text fill="#000000" font-family="sans-serif" font-size="14" lengthAdjust="spacing" textLength="117" x="674.4676" y="208.7248">Dodanie Notatki</text></g><g id="elem_del"><ellipse cx="538.212" cy="205.4424" fill="#F1F1F1" rx="82.712" ry="18.9424" style="stroke:#181818;stroke-width:0.5;"/><text fill="#000000" font-family="sans-serif" font-size="14" lengthAdjust="spacing" textLength="125" x="475.0208" y="208.5215">Usuni&#281;cie Notatki</text></g><g id="elem_edit"><ellipse cx="346.2198" cy="205.744" fill="#F1F1F1" rx="74.2198" ry="17.244" style="stroke:#181818;stroke-width:0.5;"/><text fill="#000000" font-family="sans-serif" font-size="14" lengthAdjust="spacing" textLength="104" x="291.2198" y="209.4915">Edycja Notatki</text></g><g id="elem_assign"><ellipse cx="939.2318" cy="205.7464" fill="#F1F1F1" rx="89.2318" ry="20.2464" style="stroke:#181818;stroke-width:0.5;"/><text fill="#000000" font-family="sans-serif" font-size="14" lengthAdjust="spacing" textLength="140" x="869.2318" y="208.593">Przypisanie Notatki</text></g><g id="elem_show"><ellipse cx="142.0118" cy="205.4024" fill="#F1F1F1" rx="95.0118" ry="21.4024" style="stroke:#181818;stroke-width:0.5;"/><text fill="#000000" font-family="sans-serif" font-size="14" lengthAdjust="spacing" textLength="153" x="65.5118" y="208.249">Wy&#347;wietlenie Notatki</text></g><!--entity user--><g id="elem_user"><rect fill="#F1F1F1" height="36.2969" rx="2.5" ry="2.5" style="stroke:#181818;stroke-width:0.5;" width="103" x="486.5" y="7"/><text fill="#000000" font-family="sans-serif" font-size="14" lengthAdjust="spacing" textLength="83" x="496.5" y="29.9951">U&#380;ytkownik</text></g><!--entity maps--><g id="elem_maps"><rect fill="#F1F1F1" height="36.2969" rx="2.5" ry="2.5" style="stroke:#181818;stroke-width:0.5;" width="125" x="79.5" y="7"/><text fill="#000000" font-family="sans-serif" font-size="14" lengthAdjust="spacing" textLength="105" x="89.5" y="29.9951">Dostawca map</text></g><!--link user to add--><g id="link_user_add"><path d="M565.038,43.229 C585.838,57.002 614.844,77.359 638,98 C668.405,125.102 699.382,160.824 717.898,183.229 " fill="none" id="user-to-add" style="stroke:#181818;stroke-width:1.0;"/><polygon fill="#181818" points="721.208,187.253,718.5806,177.7611,718.032,183.3912,712.4018,182.8426,721.208,187.253" style="stroke:#181818;stroke-width:1.0;"/><text fill="#000000" font-family="sans-serif" font-size="13" lengthAdjust="spacing" textLength="49" x="629" y="86.0669">notatka</text></g><!--reverse link user to show--><g id="link_user_show"><path d="M481.273,30.471 C421.058,37.381 324.98,54.753 254,98 C215.276,121.594 178.869,160.45 158.597,184.135 " fill="none" id="user-backto-show" style="stroke:#181818;stroke-width:1.0;"/><polygon fill="#181818" points="486.265,29.913,476.8754,26.9405,481.2961,30.47,477.7666,34.8907,486.265,29.913" style="stroke:#181818;stroke-width:1.0;"/><text fill="#000000" font-family="sans-serif" font-size="13" lengthAdjust="spacing" textLength="113" x="305" y="86.0669">notatka na mapie</text></g><!--link maps to show--><g id="link_maps_show"><path d="M142,43.115 C142,74.553 142,141.658 142,178.667 " fill="none" id="maps-to-show" style="stroke:#181818;stroke-width:1.0;"/><polygon fill="#181818" points="142,183.901,146,174.901,142,178.901,138,174.901,142,183.901" style="stroke:#181818;stroke-width:1.0;"/><text fill="#000000" font-family="sans-serif" font-size="13" lengthAdjust="spacing" textLength="37" x="143" y="86.0669">mapa</text></g><!--link user to del--><g id="link_user_del"><path d="M538,43.115 C538,75.302 538,144.874 538,181.259 " fill="none" id="user-to-del" style="stroke:#181818;stroke-width:1.0;"/><polygon fill="#181818" points="538,186.378,542,177.378,538,181.378,534,177.378,538,186.378" style="stroke:#181818;stroke-width:1.0;"/><text fill="#000000" font-family="sans-serif" font-size="13" lengthAdjust="spacing" textLength="49" x="539" y="86.0669">notatka</text></g><!--link user to edit--><g id="link_user_edit"><path d="M506.544,45.87 C486.095,59.441 459.363,78.448 438,98 C407.967,125.487 378.054,162.312 360.828,184.674 " fill="none" id="user-edit" style="stroke:#181818;stroke-width:1.0;"/><polygon fill="#181818" points="510.808,43.058,501.0926,44.6736,506.634,45.8107,505.4969,51.3521,510.808,43.058" style="stroke:#181818;stroke-width:1.0;"/><polygon fill="#181818" points="357.762,188.675,366.4104,183.9627,360.8025,184.7057,360.0595,179.0979,357.762,188.675" style="stroke:#181818;stroke-width:1.0;"/><text fill="#000000" font-family="sans-serif" font-size="13" lengthAdjust="spacing" textLength="49" x="468" y="86.0669">notatka</text></g><!--link user to assign--><g id="link_user_assign"><path d="M594.802,30.783 C656.575,37.991 756.568,55.647 832,98 C869.591,119.106 903.049,157.057 922.166,181.492 " fill="none" id="user-assign" style="stroke:#181818;stroke-width:1.0;"/><polygon fill="#181818" points="589.684,30.199,598.1737,35.1915,594.6519,30.7646,599.0787,27.2428,589.684,30.199" style="stroke:#181818;stroke-width:1.0;"/><polygon fill="#181818" points="925.338,185.592,922.9934,176.0263,922.278,181.6377,916.6666,180.9223,925.338,185.592" style="stroke:#181818;stroke-width:1.0;"/><text fill="#000000" font-family="sans-serif" font-size="13" lengthAdjust="spacing" textLength="49" x="812" y="86.0669">notatka</text></g><!--link add to dbn--><g id="link_add_dbn"><path d="M727.029,229.003 C721.448,243.172 713.179,261.463 703,276 C696.549,285.2128 688.342,294.2117 680.365,302.0432 " fill="none" id="add-dbn" style="stroke:#181818;stroke-width:1.0;"/><polygon fill="#181818" points="728.963,223.984,721.9954,230.9448,727.1658,228.6498,729.4607,233.8203,728.963,223.984" style="stroke:#181818;stroke-width:1.0;"/><polygon fill="#181818" points="676.477,305.7897,685.7332,302.4247,680.0773,302.3201,680.1818,296.6642,676.477,305.7897" style="stroke:#181818;stroke-width:1.0;"/><text fill="#000000" font-family="sans-serif" font-size="13" lengthAdjust="spacing" textLength="49" x="714" y="272.0669">notatka</text></g><!--link del to dbn--><g id="link_del_dbn"><path d="M572.224,226.252 C585.681,235.112 600.603,246.409 612,259 C623.205,271.379 632.589,287.5193 639.342,301.0228 " fill="none" id="del-dbn" style="stroke:#181818;stroke-width:1.0;"/><polygon fill="#181818" points="567.724,223.342,573.1105,231.5873,571.923,226.0565,577.4538,224.869,567.724,223.342" style="stroke:#181818;stroke-width:1.0;"/><polygon fill="#181818" points="641.709,305.8666,641.3513,296.0242,639.5137,301.3743,634.1636,299.5367,641.709,305.8666" style="stroke:#181818;stroke-width:1.0;"/><text fill="#000000" font-family="sans-serif" font-size="13" lengthAdjust="spacing" textLength="49" x="625" y="272.0669">notatka</text></g><!--link edit to dbn--><g id="link_edit_dbn"><path d="M365.824,225.597 C383.244,241.351 409.966,263.134 437,276 C493.15,302.7227 564.384,316.2816 608.838,322.6144 " fill="none" id="edit-dbn" style="stroke:#181818;stroke-width:1.0;"/><polygon fill="#181818" points="362.036,222.132,365.9803,231.1565,365.7266,225.5054,371.3777,225.2516,362.036,222.132" style="stroke:#181818;stroke-width:1.0;"/><polygon fill="#181818" points="613.856,323.3147,605.4941,318.1109,608.9038,322.6247,604.3901,326.0344,613.856,323.3147" style="stroke:#181818;stroke-width:1.0;"/><text fill="#000000" font-family="sans-serif" font-size="13" lengthAdjust="spacing" textLength="49" x="438" y="272.0669">notatka</text></g><!--link assign to dbn--><g id="link_assign_dbn"><path d="M893.97,225.419 C838.981,248.522 746.693,287.2956 693.08,309.8206 " fill="none" id="assign-dbn" style="stroke:#181818;stroke-width:1.0;"/><polygon fill="#181818" points="898.652,223.452,888.8052,223.2509,894.0424,225.389,891.9043,230.6262,898.652,223.452" style="stroke:#181818;stroke-width:1.0;"/><polygon fill="#181818" points="688.333,311.8148,698.1798,312.0157,692.9425,309.8777,695.0805,304.6405,688.333,311.8148" style="stroke:#181818;stroke-width:1.0;"/><text fill="#000000" font-family="sans-serif" font-size="13" lengthAdjust="spacing" textLength="49" x="814" y="272.0669">notatka</text></g><!--reverse link show to dbn--><g id="link_show_dbn"><path d="M186.689,227.071 C206.877,235.624 231.257,244.949 254,251 C278.296,257.465 285.752,252.355 310,259 C329.025,264.214 332.05,270.519 351,276 C443.646,302.7946 556.663,317.5589 613.922,323.8282 " fill="none" id="show-backto-dbn" style="stroke:#181818;stroke-width:1.0;"/><polygon fill="#181818" points="181.918,225.03,188.6206,232.2463,186.5153,226.9958,191.7659,224.8906,181.918,225.03" style="stroke:#181818;stroke-width:1.0;"/><text fill="#000000" font-family="sans-serif" font-size="13" lengthAdjust="spacing" textLength="49" x="352" y="272.0669">notatka</text></g><!--reverse link assign to sz--><g id="link_assign_sz"><path d="M939,230.845 C939,254.576 939,290.0299 939,310.7549 " fill="none" id="assign-backto-sz" style="stroke:#181818;stroke-width:1.0;"/><polygon fill="#181818" points="939,225.673,935,234.673,939,230.673,943,234.673,939,225.673" style="stroke:#181818;stroke-width:1.0;"/><text fill="#000000" font-family="sans-serif" font-size="13" lengthAdjust="spacing" textLength="52" x="940" y="272.0669">zlecenie</text></g><!--reverse link del to su--><g id="link_del_su"><path d="M528.671,229.282 C521.096,244.872 508.892,264.696 492,276 C463.483,295.0835 380.518,309.2729 315.315,317.8727 " fill="none" id="del-backto-su" style="stroke:#181818;stroke-width:1.0;"/><polygon fill="#181818" points="530.873,224.593,523.4263,231.0386,528.7473,229.1186,530.6673,234.4397,530.873,224.593" style="stroke:#181818;stroke-width:1.0;"/><text fill="#000000" font-family="sans-serif" font-size="13" lengthAdjust="spacing" textLength="78" x="512" y="272.0669">uprawnienia</text></g><!--reverse link edit to su--><g id="link_edit_su"><path d="M313.598,223.867 C296.24,232.734 274.305,243.255 254,251 C241.907,255.613 233.794,248.667 226,259 C215.893,272.4 217.829,291.819 221.609,306.5619 " fill="none" id="edit-backto-su" style="stroke:#181818;stroke-width:1.0;"/><polygon fill="#181818" points="318.367,221.413,308.5341,221.9733,313.9209,223.7004,312.1939,229.0871,318.367,221.413" style="stroke:#181818;stroke-width:1.0;"/><text fill="#000000" font-family="sans-serif" font-size="13" lengthAdjust="spacing" textLength="78" x="227" y="272.0669">uprawnienia</text></g><!--reverse link show to su--><g id="link_show_su"><path d="M116.473,230.753 C105.208,244.45 96.449,261.647 106,276 C117.927,293.9243 137.421,305.6221 157.41,313.2518 " fill="none" id="show-backto-su" style="stroke:#181818;stroke-width:1.0;"/><polygon fill="#181818" points="120.032,226.622,111.1271,230.8295,116.7684,230.41,117.1879,236.0513,120.032,226.622" style="stroke:#181818;stroke-width:1.0;"/><text fill="#000000" font-family="sans-serif" font-size="13" lengthAdjust="spacing" textLength="78" x="107" y="272.0669">uprawnienia</text></g><!--SRC=[TP71IiD048RFpLCiFTL3Na1AGQXN4QG8tYRPeQv9Do6p8IJIcoyXFePNRvhtScSssAGsEII4xv_vP_wfC7LWzpcgvQx_QbrMDDPaImMaQi8ggavyMv239WLrW584_aiZmKsPcmpI5s06PQbUeyMe_A4bXmTrLpXm61p8UibYjIqqM8C1PUPAwhLcjAFQcf_tz8ngp9dUwfRjnWIrSOpkgwuj3VtlIsJsbXMFRV_H67GvdclekMWYvP-Zl5V3v4yvfjY_1KatGQFelZ-ReAX5eS510kJt7nnaSPtOI31dhE9um_kgQoiIE95r7CiqVqXPYT-WQFW0KXqq_XUcNNrEbxjk9AWv5aAQKXvm7MjkcfmXTfb1uZB31fSPAYinku0w5TUZCJi-Z1qoeJf0MRqkA_17yH0cC2m_HqEQOneTVm40]--></g></svg>