<?xml version="1.0" encoding="us-ascii" standalone="no"?><svg xmlns="http://www.w3.org/2000/svg" xmlns:xlink="http://www.w3.org/1999/xlink" contentStyleType="text/css" height="667px" preserveAspectRatio="none" style="width:1482px;height:667px;background:#FFFFFF;" version="1.1" viewBox="0 0 1482 667" width="1482px" zoomAndPan="magnify"><defs/><g><line style="stroke:#181818;stroke-width:1.5;" x1="88.5" x2="88.5" y1="63.9688" y2="83.9688"/><rect fill="#F1F1F1" height="33.9688" style="stroke:#181818;stroke-width:1.5;" width="157" x="10" y="83.9688"/><text fill="#000000" font-family="sans-serif" font-size="12" lengthAdjust="spacing" textLength="137" x="20" y="105.1074">Zarz&#261;dzanie notatkami</text><line style="stroke:#181818;stroke-width:1.5;" x1="88.5" x2="98.5" y1="149.9219" y2="149.9219"/><rect fill="#F1F1F1" height="33.9688" style="stroke:#181818;stroke-width:1.5;" width="131" x="98.5" y="132.9375"/><text fill="#000000" font-family="sans-serif" font-size="12" lengthAdjust="spacing" textLength="111" x="108.5" y="154.0762">Dodawanie notatki</text><line style="stroke:#181818;stroke-width:1.5;" x1="88.5" x2="98.5" y1="198.8906" y2="198.8906"/><rect fill="#F1F1F1" height="33.9688" style="stroke:#181818;stroke-width:1.5;" width="103" x="98.5" y="181.9063"/><text fill="#000000" font-family="sans-serif" font-size="12" lengthAdjust="spacing" textLength="83" x="108.5" y="203.0449">Edycja notatki</text><line style="stroke:#181818;stroke-width:1.5;" x1="88.5" x2="98.5" y1="247.8594" y2="247.8594"/><rect fill="#F1F1F1" height="33.9688" style="stroke:#181818;stroke-width:1.5;" width="122" x="98.5" y="230.875"/><text fill="#000000" font-family="sans-serif" font-size="12" lengthAdjust="spacing" textLength="102" x="108.5" y="252.0137">Usuwanie notatki</text><line style="stroke:#181818;stroke-width:1.5;" x1="88.5" x2="98.5" y1="296.8281" y2="296.8281"/><rect fill="#F1F1F1" height="33.9688" style="stroke:#181818;stroke-width:1.5;" width="154" x="98.5" y="279.8438"/><text fill="#000000" font-family="sans-serif" font-size="12" lengthAdjust="spacing" textLength="134" x="108.5" y="300.9824">Wyszukiwanie notatek</text><line style="stroke:#181818;stroke-width:1.5;" x1="88.5" x2="88.5" y1="117.9375" y2="296.8281"/><line style="stroke:#181818;stroke-width:1.5;" x1="365.5" x2="365.5" y1="63.9688" y2="83.9688"/><rect fill="#F1F1F1" height="33.9688" style="stroke:#181818;stroke-width:1.5;" width="186" x="272.5" y="83.9688"/><text fill="#000000" font-family="sans-serif" font-size="12" lengthAdjust="spacing" textLength="166" x="282.5" y="105.1074">Zarz&#261;dzanie u&#380;ytkownikami</text><line style="stroke:#181818;stroke-width:1.5;" x1="365.5" x2="375.5" y1="149.9219" y2="149.9219"/><rect fill="#F1F1F1" height="33.9688" style="stroke:#181818;stroke-width:1.5;" width="164" x="375.5" y="132.9375"/><text fill="#000000" font-family="sans-serif" font-size="12" lengthAdjust="spacing" textLength="144" x="385.5" y="154.0762">Dodawanie u&#380;ytkownika</text><line style="stroke:#181818;stroke-width:1.5;" x1="365.5" x2="375.5" y1="198.8906" y2="198.8906"/><rect fill="#F1F1F1" height="33.9688" style="stroke:#181818;stroke-width:1.5;" width="155" x="375.5" y="181.9063"/><text fill="#000000" font-family="sans-serif" font-size="12" lengthAdjust="spacing" textLength="135" x="385.5" y="203.0449">Usuwanie u&#380;ytkownika</text><line style="stroke:#181818;stroke-width:1.5;" x1="365.5" x2="375.5" y1="247.8594" y2="247.8594"/><rect fill="#F1F1F1" height="33.9688" style="stroke:#181818;stroke-width:1.5;" width="136" x="375.5" y="230.875"/><text fill="#000000" font-family="sans-serif" font-size="12" lengthAdjust="spacing" textLength="116" x="385.5" y="252.0137">Edycja u&#380;ytkownika</text><line style="stroke:#181818;stroke-width:1.5;" x1="365.5" x2="375.5" y1="296.8281" y2="296.8281"/><rect fill="#F1F1F1" height="33.9688" style="stroke:#181818;stroke-width:1.5;" width="228" x="375.5" y="279.8438"/><text fill="#000000" font-family="sans-serif" font-size="12" lengthAdjust="spacing" textLength="208" x="385.5" y="300.9824">Ustawianie uprawnie&#324; u&#380;ytkownika</text><line style="stroke:#181818;stroke-width:1.5;" x1="365.5" x2="375.5" y1="345.7969" y2="345.7969"/><rect fill="#F1F1F1" height="33.9688" style="stroke:#181818;stroke-width:1.5;" width="148" x="375.5" y="328.8125"/><text fill="#000000" font-family="sans-serif" font-size="12" lengthAdjust="spacing" textLength="128" x="385.5" y="349.9512">Zarz&#261;dzanie grupami</text><line style="stroke:#181818;stroke-width:1.5;" x1="449.5" x2="459.5" y1="394.7656" y2="394.7656"/><rect fill="#F1F1F1" height="33.9688" style="stroke:#181818;stroke-width:1.5;" width="122" x="459.5" y="377.7813"/><text fill="#000000" font-family="sans-serif" font-size="12" lengthAdjust="spacing" textLength="102" x="469.5" y="398.9199">Tworzenie grupy</text><line style="stroke:#181818;stroke-width:1.5;" x1="449.5" x2="459.5" y1="443.7344" y2="443.7344"/><rect fill="#F1F1F1" height="33.9688" style="stroke:#181818;stroke-width:1.5;" width="117" x="459.5" y="426.75"/><text fill="#000000" font-family="sans-serif" font-size="12" lengthAdjust="spacing" textLength="97" x="469.5" y="447.8887">Usuwanie grupy</text><line style="stroke:#181818;stroke-width:1.5;" x1="449.5" x2="459.5" y1="492.7031" y2="492.7031"/><rect fill="#F1F1F1" height="33.9688" style="stroke:#181818;stroke-width:1.5;" width="190" x="459.5" y="475.7188"/><text fill="#000000" font-family="sans-serif" font-size="12" lengthAdjust="spacing" textLength="170" x="469.5" y="496.8574">Ustawianie uprawnie&#324; grupy</text><line style="stroke:#181818;stroke-width:1.5;" x1="449.5" x2="459.5" y1="541.6719" y2="541.6719"/><rect fill="#F1F1F1" height="33.9688" style="stroke:#181818;stroke-width:1.5;" width="159" x="459.5" y="524.6875"/><text fill="#000000" font-family="sans-serif" font-size="12" lengthAdjust="spacing" textLength="139" x="469.5" y="545.8262">Edycja cz&#322;onk&#243;w grupy</text><line style="stroke:#181818;stroke-width:1.5;" x1="539" x2="549" y1="590.6406" y2="590.6406"/><rect fill="#F1F1F1" height="33.9688" style="stroke:#181818;stroke-width:1.5;" width="234" x="549" y="573.6563"/><text fill="#000000" font-family="sans-serif" font-size="12" lengthAdjust="spacing" textLength="214" x="559" y="594.7949">Dodawanie u&#380;ytkownik&#243;w do grupy</text><line style="stroke:#181818;stroke-width:1.5;" x1="539" x2="549" y1="639.6094" y2="639.6094"/><rect fill="#F1F1F1" height="33.9688" style="stroke:#181818;stroke-width:1.5;" width="225" x="549" y="622.625"/><text fill="#000000" font-family="sans-serif" font-size="12" lengthAdjust="spacing" textLength="205" x="559" y="643.7637">Usuwanie u&#380;ytkownik&#243;w do grupy</text><line style="stroke:#181818;stroke-width:1.5;" x1="539" x2="539" y1="558.6563" y2="639.6094"/><line style="stroke:#181818;stroke-width:1.5;" x1="449.5" x2="449.5" y1="362.7813" y2="541.6719"/><line style="stroke:#181818;stroke-width:1.5;" x1="365.5" x2="365.5" y1="117.9375" y2="345.7969"/><line style="stroke:#181818;stroke-width:1.5;" x1="871.5" x2="871.5" y1="63.9688" y2="83.9688"/><rect fill="#F1F1F1" height="33.9688" style="stroke:#181818;stroke-width:1.5;" width="137" x="803" y="83.9688"/><text fill="#000000" font-family="sans-serif" font-size="12" lengthAdjust="spacing" textLength="117" x="813" y="105.1074">Ustawienia aplikacji</text><line style="stroke:#181818;stroke-width:1.5;" x1="871.5" x2="881.5" y1="149.9219" y2="149.9219"/><rect fill="#F1F1F1" height="33.9688" style="stroke:#181818;stroke-width:1.5;" width="147" x="881.5" y="132.9375"/><text fill="#000000" font-family="sans-serif" font-size="12" lengthAdjust="spacing" textLength="127" x="891.5" y="154.0762">Ustawienia lokalizacji</text><line style="stroke:#181818;stroke-width:1.5;" x1="871.5" x2="881.5" y1="198.8906" y2="198.8906"/><rect fill="#F1F1F1" height="33.9688" style="stroke:#181818;stroke-width:1.5;" width="231" x="881.5" y="181.9063"/><text fill="#000000" font-family="sans-serif" font-size="12" lengthAdjust="spacing" textLength="211" x="891.5" y="203.0449">Ustawienia po&#322;&#261;czenia z serwerem</text><line style="stroke:#181818;stroke-width:1.5;" x1="871.5" x2="881.5" y1="247.8594" y2="247.8594"/><rect fill="#F1F1F1" height="33.9688" style="stroke:#181818;stroke-width:1.5;" width="139" x="881.5" y="230.875"/><text fill="#000000" font-family="sans-serif" font-size="12" lengthAdjust="spacing" textLength="119" x="891.5" y="252.0137">Ustawienia wygl&#261;du</text><line style="stroke:#181818;stroke-width:1.5;" x1="871.5" x2="881.5" y1="296.8281" y2="296.8281"/><rect fill="#F1F1F1" height="33.9688" style="stroke:#181818;stroke-width:1.5;" width="238" x="881.5" y="279.8438"/><text fill="#000000" font-family="sans-serif" font-size="12" lengthAdjust="spacing" textLength="218" x="891.5" y="300.9824">Prze&#322;&#261;czanie/logowanie u&#380;ytkownika</text><line style="stroke:#181818;stroke-width:1.5;" x1="871.5" x2="881.5" y1="345.7969" y2="345.7969"/><rect fill="#F1F1F1" height="33.9688" style="stroke:#181818;stroke-width:1.5;" width="185" x="881.5" y="328.8125"/><text fill="#000000" font-family="sans-serif" font-size="12" lengthAdjust="spacing" textLength="165" x="891.5" y="349.9512">Tworzenie kopii zapasowej</text><line style="stroke:#181818;stroke-width:1.5;" x1="871.5" x2="871.5" y1="117.9375" y2="345.7969"/><line style="stroke:#181818;stroke-width:1.5;" x1="1222" x2="1222" y1="63.9688" y2="83.9688"/><rect fill="#F1F1F1" height="33.9688" style="stroke:#181818;stroke-width:1.5;" width="165" x="1139.5" y="83.9688"/><text fill="#000000" font-family="sans-serif" font-size="12" lengthAdjust="spacing" textLength="145" x="1149.5" y="105.1074">Zarz&#261;dzanie Zleceniami</text><line style="stroke:#181818;stroke-width:1.5;" x1="1222" x2="1232" y1="149.9219" y2="149.9219"/><rect fill="#F1F1F1" height="33.9688" style="stroke:#181818;stroke-width:1.5;" width="113" x="1232" y="132.9375"/><text fill="#000000" font-family="sans-serif" font-size="12" lengthAdjust="spacing" textLength="93" x="1242" y="154.0762">Import zlecenia</text><line style="stroke:#181818;stroke-width:1.5;" x1="1222" x2="1232" y1="198.8906" y2="198.8906"/><rect fill="#F1F1F1" height="33.9688" style="stroke:#181818;stroke-width:1.5;" width="239" x="1232" y="181.9063"/><text fill="#000000" font-family="sans-serif" font-size="12" lengthAdjust="spacing" textLength="219" x="1242" y="203.0449">Przypisanie u&#380;ytkownika do zlecenia</text><line style="stroke:#181818;stroke-width:1.5;" x1="1222" x2="1232" y1="247.8594" y2="247.8594"/><rect fill="#F1F1F1" height="33.9688" style="stroke:#181818;stroke-width:1.5;" width="221" x="1232" y="230.875"/><text fill="#000000" font-family="sans-serif" font-size="12" lengthAdjust="spacing" textLength="201" x="1242" y="252.0137">Usuni&#281;cie u&#380;ytkownika z zlecenia</text><line style="stroke:#181818;stroke-width:1.5;" x1="1222" x2="1232" y1="296.8281" y2="296.8281"/><rect fill="#F1F1F1" height="33.9688" style="stroke:#181818;stroke-width:1.5;" width="207" x="1232" y="279.8438"/><text fill="#000000" font-family="sans-serif" font-size="12" lengthAdjust="spacing" textLength="187" x="1242" y="300.9824">Przypisanie Notatki do zlecenia</text><line style="stroke:#181818;stroke-width:1.5;" x1="1222" x2="1222" y1="117.9375" y2="296.8281"/><line style="stroke:#181818;stroke-width:1.5;" x1="88.5" x2="1222" y1="63.9688" y2="63.9688"/><rect fill="#F1F1F1" height="33.9688" style="stroke:#181818;stroke-width:1.5;" width="284" x="513.25" y="10"/><text fill="#000000" font-family="sans-serif" font-size="12" lengthAdjust="spacing" textLength="264" x="523.25" y="31.1387">Aplikacja do tworzenia notatek z geotagami</text><line style="stroke:#181818;stroke-width:1.5;" x1="655.25" x2="655.25" y1="43.9688" y2="63.9688"/><!--SRC=[TLDDRzD04BtxLymnKTG20Q6g1rIWuQDAK4II8lKsiGThQdl7MgzZUOyL_H7y3gxSIFuNwu-24oSt-xqt-vxVZgyoWzeKw-oDDuAtQSmH-lS8WO0fH5jIZA34eA48B8Ja7aDCs1kDu0wrtJu65XLJeuaQPWJN4c3HmHjq4fJLsLrebULztRSoitd47OAYdc6- -rsQI0h5HroxvBvFZsb37PamM70pasfq1Er-z6LxcKATfssO4IpR_XguRC1_EVQmOquTGHlHjxi7KT6VNqM7FF7LbSZTOLTth883MHkbldHiTu4xRTH4B176R8zHgUmUjez-ipKMCj85QKeEPKKPngwplCRdhgHcgWhtB9PGJjpK_q8ZIPd1OegP57JVsusxcFpAgTsBpqagse1jqIVRCkMivrJLiITqjIdU_lGFTVRqUL-QNTuxwefKKFzbtZn6PLQpAMn8PomANfoFduzVdb-ioU1ui5AHSXRWIv9oJ60ueQ4t-3YVGYQvzWa2pepcTMxSyD2xmGt2rrnLkaketWRBsH0MaoSG9ch3MbH2odWtjxD619_4B58njVZrgxDtR611scM2svbtJTynZuqRzILW5Lx2QldXxCAReWfp39qHAU-zE0DTEcxn5m00]--></g></svg>